<svg xmlns="http://www.w3.org/2000/svg" width="128" height="128" viewBox="0 0 128 128">
  <metadata><?xpacket begin="﻿" id="W5M0MpCehiHzreSzNTczkc9d"?>
<x:xmpmeta xmlns:x="adobe:ns:meta/" x:xmptk="Adobe XMP Core 5.6-c138 79.159824, 2016/09/14-01:09:01        ">
   <rdf:RDF xmlns:rdf="http://www.w3.org/1999/02/22-rdf-syntax-ns#">
      <rdf:Description rdf:about=""/>
   </rdf:RDF>
</x:xmpmeta>
                                                                                                    
                                                                                                    
                                                                                                    
                                                                                                    
                                                                                                    
                                                                                                    
                                                                                                    
                                                                                                    
                                                                                                    
                                                                                                    
                                                                                                    
                                                                                                    
                                                                                                    
                                                                                                    
                                                                                                    
                                                                                                    
                                                                                                    
                                                                                                    
                                                                                                    
                                                                                                    
                           
<?xpacket end="w"?></metadata>
<defs>
    <style>
      .cls-1 {
        fill: #262626;
      }

      .cls-2 {
        fill: #fff;
      }

      .cls-2, .cls-3 {
        fill-rule: evenodd;
      }

      .cls-3 {
        fill: #7ccc27;
      }
    </style>
  </defs>
  <circle class="cls-1" cx="64" cy="64" r="64"/>
  <path id="AS3" class="cls-2" d="M54.77,77.924l-9.8-26.9H34.859l-9.8,26.9h9.119l0.956-3.145H44.7l0.956,3.145H54.77ZM42.545,67.681H37.288l2.628-8.67ZM66.118,78.408c7.128,0,11.469-3.428,11.469-9.356,0-6.613-6.491-7.9-10.872-8.751-2.23-.444-3.9-0.766-3.9-1.613,0-.686.438-1.21,2.031-1.21a13.313,13.313,0,0,1,7.805,2.662l4.3-5.767a17.381,17.381,0,0,0-11.27-3.75c-7.288,0-11.031,4.355-11.031,8.912,0,7.138,6.69,8.267,11.071,9.073,2.15,0.363,3.743.645,3.743,1.492,0,1.049-1.434,1.452-2.947,1.452a12.3,12.3,0,0,1-8.562-3.468l-4.181,6.049C56.6,76.714,60.463,78.408,66.118,78.408Zm23.494,0c6.889,0,11.549-3.266,11.549-8.065,0-3.71-3.345-5.968-6.292-6.291,3.385-.564,5.854-3.105,5.854-5.968,0-4.436-3.743-7.46-11.071-7.46-5.177,0-8.8,1.815-11.151,4.436l3.783,5.081A10.276,10.276,0,0,1,88.775,57.8c2.31,0,3.942.484,3.942,1.734,0,0.847-1.115,1.331-3.664,1.331-0.956,0-3.345,0-3.863-.04v7.218c0.4-.04,2.708-0.081,3.863-0.081,3.544,0,4.1.524,4.1,1.452,0,0.968-1.234,1.815-3.863,1.815a11.8,11.8,0,0,1-7.208-2.581l-3.943,5.565C80.373,76.634,84.355,78.408,89.611,78.408Z"/>
  <path id="_" data-name="}" class="cls-3" d="M104.185,81.554h2.39a7.161,7.161,0,0,0,7.367-7.42V68.528c0-1.492.677-2.581,2.071-2.581V62.157c-1.394,0-2.071-1.089-2.071-2.581V54.011a7.2,7.2,0,0,0-7.367-7.46h-2.39v4.6h2.39c1.314,0,2.389,1.049,2.389,2.823v6.412c0,1.694.518,3.105,1.832,3.67-1.314.565-1.832,1.976-1.832,3.67v6.372c0,1.734-1.075,2.863-2.389,2.863h-2.39v4.6Z"/>
  <path id="_2" data-name="{" class="cls-3" d="M23.828,81.554v-4.6H21.439c-1.314,0-2.389-1.129-2.389-2.863V67.722c0-1.694-.518-3.105-1.832-3.67,1.314-.565,1.832-1.976,1.832-3.67V53.97c0-1.774,1.075-2.823,2.389-2.823h2.389v-4.6H21.439a7.2,7.2,0,0,0-7.367,7.46v5.565c0,1.492-.677,2.581-2.071,2.581v3.791c1.394,0,2.071,1.089,2.071,2.581v5.605a7.161,7.161,0,0,0,7.367,7.42h2.389Z"/>
</svg>
