<svg xmlns="http://www.w3.org/2000/svg" width="128" height="128" viewBox="0 0 128 128">
  <metadata><?xpacket begin="﻿" id="W5M0MpCehiHzreSzNTczkc9d"?>
<x:xmpmeta xmlns:x="adobe:ns:meta/" x:xmptk="Adobe XMP Core 5.6-c138 79.159824, 2016/09/14-01:09:01        ">
   <rdf:RDF xmlns:rdf="http://www.w3.org/1999/02/22-rdf-syntax-ns#">
      <rdf:Description rdf:about=""/>
   </rdf:RDF>
</x:xmpmeta>
                                                                                                    
                                                                                                    
                                                                                                    
                                                                                                    
                                                                                                    
                                                                                                    
                                                                                                    
                                                                                                    
                                                                                                    
                                                                                                    
                                                                                                    
                                                                                                    
                                                                                                    
                                                                                                    
                                                                                                    
                                                                                                    
                                                                                                    
                                                                                                    
                                                                                                    
                                                                                                    
                           
<?xpacket end="w"?></metadata>
<defs>
    <style>
      .cls-1 {
        fill: #262626;
      }

      .cls-2 {
        fill: #7ccc27;
      }

      .cls-2, .cls-3 {
        fill-rule: evenodd;
      }

      .cls-3 {
        fill: #efefef;
      }
    </style>
  </defs>
  <circle class="cls-1" cx="64" cy="64" r="64"/>
  <path id="Actionscript" class="cls-2" d="M30.817,79.133l-1.43-8.674H27.073l-5.265,8.674h2.2l0.871-1.469h3.718l0.221,1.469h2Zm-2.379-3.1H25.747l2.171-3.732Zm7.292,3.251a4.46,4.46,0,0,0,3.562-1.678l-1.417-.962a2.743,2.743,0,0,1-2.041,1,2.294,2.294,0,0,1-2.444-2.367,3.174,3.174,0,0,1,3.029-3.329,2.186,2.186,0,0,1,2.158,1.417l1.781-.6a3.857,3.857,0,0,0-3.848-2.458A4.96,4.96,0,0,0,31.466,75.4C31.466,77.767,33.338,79.289,35.73,79.289Zm8.02-.156L45.3,72.084h2.535l0.351-1.626H41.267L40.9,72.084h2.535l-1.547,7.049H43.75Zm5.55,0,1.911-8.674H49.365l-1.911,8.674H49.3Zm6.4,0.156a5,5,0,0,0,5.031-5.1c0-2.367-1.859-3.875-4.251-3.875A5,5,0,0,0,51.432,75.4C51.432,77.78,53.29,79.289,55.7,79.289Zm0.1-1.639a2.286,2.286,0,0,1-2.444-2.367,3.153,3.153,0,0,1,3-3.329A2.293,2.293,0,0,1,58.8,74.321,3.162,3.162,0,0,1,55.8,77.65ZM68.72,79.133l1.911-8.674H68.785L67.524,76.1l-2.756-5.644h-1.9L60.96,79.133h1.846l1.3-5.852,2.834,5.852H68.72Zm5.472,0.156c2.145,0,3.419-1.365,3.419-2.965,0-1.5-1.521-2.068-2.743-2.51-0.819-.3-1.495-0.546-1.495-1a1.047,1.047,0,0,1,1.157-.884,3.5,3.5,0,0,1,2.587,1.105l1.144-1.3a4.536,4.536,0,0,0-3.445-1.4c-2.145,0-3.393,1.392-3.393,2.822,0,1.508,1.508,2.042,2.7,2.471,0.819,0.3,1.508.559,1.508,1.066a1.116,1.116,0,0,1-1.3.988,3.7,3.7,0,0,1-2.925-1.352l-1.144,1.352A5,5,0,0,0,74.192,79.289Zm8.722,0a4.46,4.46,0,0,0,3.562-1.678l-1.417-.962a2.743,2.743,0,0,1-2.041,1,2.294,2.294,0,0,1-2.444-2.367A3.174,3.174,0,0,1,83.6,71.954a2.186,2.186,0,0,1,2.158,1.417l1.781-.6a3.857,3.857,0,0,0-3.848-2.458A4.96,4.96,0,0,0,78.65,75.4C78.65,77.767,80.522,79.289,82.914,79.289Zm11.27-.156-1.2-3.212a3,3,0,0,0,2.47-3.017,2.513,2.513,0,0,0-2.678-2.445h-3.7l-1.911,8.674H89.01l0.676-3.082h1.43l1.027,3.082h2.041Zm-2.223-4.708H90.05l0.52-2.341h1.859a1.048,1.048,0,0,1,1.092,1,1.357,1.357,0,0,1-1.534,1.34H91.961Zm5.407,4.708,1.911-8.674H97.433l-1.911,8.674h1.846Zm3.561,0,0.689-3.082h2.171a3.229,3.229,0,0,0,3.588-3.186,2.4,2.4,0,0,0-2.574-2.406h-3.809l-1.91,8.674h1.846Zm1.04-4.708,0.52-2.341h1.872a0.98,0.98,0,0,1,1.079.975,1.4,1.4,0,0,1-1.534,1.365h-1.937Zm9.086,4.708,1.547-7.049h2.535l0.351-1.626h-6.916l-0.364,1.626h2.535L109.2,79.133h1.859Z"/>
  <path id="NextGen" class="cls-3" d="M27.41,67.381l4.042-18.348H25.9l-1.98,8.913-4.4-8.913H13.8L9.757,67.381h5.554l2.09-9.518,4.674,9.518H27.41Zm9.954,0.33a9.216,9.216,0,0,0,4.757-1.21l-1.512-3.219a5.9,5.9,0,0,1-2.887.66A2.8,2.8,0,0,1,35,62.292V62.264h8.909a10.726,10.726,0,0,0,.3-2.448c0-4.044-2.915-6.052-6.214-6.052A7.789,7.789,0,0,0,30.1,61.659C30.1,65.565,33.074,67.711,37.364,67.711Zm-1.9-8.583a2.523,2.523,0,0,1,2.337-1.6,1.837,1.837,0,0,1,2.035,1.513v0.083H35.466Zm21.64,8.253-2.887-6.822,5.527-6.465H54.192L51.717,57.2l-1.1-3.108H45.338l2.612,6.465L42.12,67.381h5.527l2.887-3.521,1.292,3.521h5.279Zm7.617,0.33a4.557,4.557,0,0,0,2.365-.55V63.2a1.866,1.866,0,0,1-.687.138,1.051,1.051,0,0,1-1.237-1.073,3.6,3.6,0,0,1,.082-0.633l0.715-3.246h2.695l0.962-4.291H66.923l0.8-3.631H62.771l-0.8,3.631h-2.2l-0.962,4.291h2.2L59.938,63.31a5.842,5.842,0,0,0-.11,1.045C59.828,66.666,61.863,67.711,64.723,67.711Zm14.243,0A9.661,9.661,0,0,0,86.858,64l1.677-7.538H79.6L78.5,61.3h3.41l-0.138.688a4.138,4.138,0,0,1-2.5.825,3.919,3.919,0,0,1-4.124-3.906,5.145,5.145,0,0,1,5.032-5.282A3.691,3.691,0,0,1,83.75,55.91l5.115-2.091a8.184,8.184,0,0,0-7.892-5.089c-6.957,0-11.576,4.539-11.576,10.563C69.4,64.658,73.934,67.711,78.966,67.711Zm16.608,0a9.217,9.217,0,0,0,4.757-1.21l-1.513-3.219a5.9,5.9,0,0,1-2.887.66,2.8,2.8,0,0,1-2.722-1.651V62.264h8.909a10.694,10.694,0,0,0,.3-2.448c0-4.044-2.915-6.052-6.215-6.052a7.788,7.788,0,0,0-7.892,7.895C88.315,65.565,91.284,67.711,95.574,67.711Zm-1.9-8.583a2.523,2.523,0,0,1,2.337-1.6,1.837,1.837,0,0,1,2.035,1.513v0.083H93.677Zm22.3,8.253,2.007-9.05a7.637,7.637,0,0,0,.137-1.073c0-1.981-1.595-3.494-4.372-3.494a5.846,5.846,0,0,0-4.179,1.843l0.357-1.513h-4.949l-2.942,13.287h4.949l1.815-8.225a3.435,3.435,0,0,1,2.337-1.018,1.352,1.352,0,0,1,1.595,1.238,5.249,5.249,0,0,1-.165,1.018l-1.54,6.987h4.95Z"/>
</svg>
